<?xml version="1.0" encoding="UTF-8"?>
<svg version="1.1" xmlns="http://www.w3.org/2000/svg" width="64" height="64">
<path d="M0 0 C3.78898007 6.03868699 3.78898007 6.03868699 4.5625 9.5625 C3.69785105 13.30931212 2.24281101 15.95950239 -1 18 C-4.71974983 18.50676367 -8.27045733 18.35270631 -12 18 C-12.09087891 19.17755859 -12.09087891 19.17755859 -12.18359375 20.37890625 C-12.62820214 25.95361148 -13.12124643 31.47640616 -14 37 C-9.45528724 35.78068682 -6.27669133 33.95918386 -2.61328125 31.12109375 C2.1582586 27.80527792 8.47371799 28.4957005 14 29 C19.40402048 30.60119125 22.88017402 33.25786452 26 38 C27.9255476 41.8510952 27.5324676 46.1211016 26.38671875 50.1640625 C24.45114522 54.71735 22.16084087 57.40808004 17.56640625 59.3203125 C4.52690297 62.77369693 -16.54751899 62.82164726 -29 57 C-32.03327996 54.74340764 -32.89514558 53.62064563 -33.53125 49.85546875 C-33.3990751 34.34144014 -30.03791781 18.02310076 -19 6.4375 C-12.8565502 0.85148988 -8.14624784 -0.48877487 0 0 Z " fill="#FEC119" transform="translate(35,2)"/>
<path d="M0 0 C3.78898007 6.03868699 3.78898007 6.03868699 4.5625 9.5625 C3.69785105 13.30931212 2.24281101 15.95950239 -1 18 C-4.71974983 18.50676367 -8.27045733 18.35270631 -12 18 C-12.33 19.65 -12.66 21.3 -13 23 C-13.66 23 -14.32 23 -15 23 C-14.79375 21.9275 -14.5875 20.855 -14.375 19.75 C-14.0123809 16.12380904 -14.01637931 14.91708924 -16 12 C-15.34 12 -14.68 12 -14 12 C-13.56042969 12.49113281 -13.12085937 12.98226563 -12.66796875 13.48828125 C-10.46339762 15.48633518 -9.23545816 15.31458514 -6.3125 15.1875 C-5.10013672 15.14689453 -5.10013672 15.14689453 -3.86328125 15.10546875 C-3.24839844 15.07066406 -2.63351563 15.03585938 -2 15 C-4.31 14.01 -6.62 13.02 -9 12 C-8.67 10.68 -8.34 9.36 -8 8 C-6.35 7.67 -4.7 7.34 -3 7 C-3 7.66 -3 8.32 -3 9 C-4.32 9 -5.64 9 -7 9 C-7 9.99 -7 10.98 -7 12 C-4.36 11.67 -1.72 11.34 1 11 C0.4118332 7.97514219 -0.24070528 4.98613386 -1 2 C-8.58957848 2.50058922 -13.31536941 4.94236679 -18.73828125 10.24609375 C-22.66150997 15.02308209 -24.89791749 20.22794506 -27 26 C-27.33902344 26.9075 -27.67804687 27.815 -28.02734375 28.75 C-30.40581784 36.1155972 -31.19291475 44.3352879 -30 52 C-26.88768216 55.85097461 -21.68986339 56.40360584 -17 57 C-12.46577092 57.25854433 -7.94571155 57.33008559 -3.40600586 57.31567383 C-1.30596058 57.31249009 0.79270368 57.33612865 2.89257812 57.36132812 C4.24478992 57.36359961 5.59700544 57.36430532 6.94921875 57.36328125 C8.15924561 57.36626221 9.36927246 57.36924316 10.6159668 57.37231445 C15.79384243 56.8026398 18.98109797 55.1797813 22.375 51.25 C24.30540652 47.38918695 24.60938288 45.26568014 24 41 C21.66444638 35.82116372 18.56567108 33.63668806 13.4296875 31.6328125 C8.47869572 30.34332589 4.3013955 30.86116512 -0.2734375 33.125 C-3.15608665 34.87332151 -5.6128714 36.6128714 -8 39 C-10.65537372 39.56520003 -13.29144713 39.73788198 -16 40 C-16.66 43.63 -17.32 47.26 -18 51 C-18.33 51 -18.66 51 -19 51 C-19.38401632 44.72773343 -18.55055376 40.81526257 -16 35 C-15.4720648 31.67596355 -15.19598181 28.35872276 -15 25 C-14.67 25 -14.34 25 -14 25 C-13.80426392 26.43640171 -13.61872184 27.87419504 -13.4375 29.3125 C-13.33308594 30.11300781 -13.22867187 30.91351563 -13.12109375 31.73828125 C-13 34 -13 34 -14 37 C-9.45528724 35.78068682 -6.27669133 33.95918386 -2.61328125 31.12109375 C2.1582586 27.80527792 8.47371799 28.4957005 14 29 C19.40402048 30.60119125 22.88017402 33.25786452 26 38 C27.9255476 41.8510952 27.5324676 46.1211016 26.38671875 50.1640625 C24.45114522 54.71735 22.16084087 57.40808004 17.56640625 59.3203125 C4.52690297 62.77369693 -16.54751899 62.82164726 -29 57 C-32.03327996 54.74340764 -32.89514558 53.62064563 -33.53125 49.85546875 C-33.3990751 34.34144014 -30.03791781 18.02310076 -19 6.4375 C-12.8565502 0.85148988 -8.14624784 -0.48877487 0 0 Z " fill="#EFA801" transform="translate(35,2)"/>
<path d="M0 0 C1.85034757 1.85034757 3.39325093 3.54547709 4.9375 5.6875 C9.57674081 9.1906002 14.3662997 8.73617817 20 8 C23.19729847 6.77672567 23.19729847 6.77672567 25 4 C25.66 4 26.32 4 27 4 C25.53077607 7.87340853 23.66587011 9.17219922 20 11 C14.76134547 11.78262537 8.98057534 12.14416565 4.375 9.1875 C2 7 2 7 0 4 C0 2.68 0 1.36 0 0 Z " fill="#F1AA02" transform="translate(27,45)"/>
</svg>
