<?xml version="1.0" encoding="UTF-8"?>
<!DOCTYPE svg PUBLIC "-//W3C//DTD SVG 1.1//EN" "http://www.w3.org/Graphics/SVG/1.1/DTD/svg11.dtd">
<svg xmlns="http://www.w3.org/2000/svg" version="1.1" width="64px" height="64px" style="shape-rendering:geometricPrecision; text-rendering:geometricPrecision; image-rendering:optimizeQuality; fill-rule:evenodd; clip-rule:evenodd" xmlns:xlink="http://www.w3.org/1999/xlink">
<g><path style="opacity:1" fill="#7686df" d="M 42.5,4.5 C 43.5981,5.39695 43.5981,6.23029 42.5,7C 35.1667,7.66667 27.8333,7.66667 20.5,7C 19.5842,6.72158 18.9175,6.22158 18.5,5.5C 26.2812,1.96589 34.2812,1.63256 42.5,4.5 Z"/></g>
<g><path style="opacity:1" fill="#768dd7" d="M 42.5,4.5 C 44.153,4.6596 45.4863,5.32627 46.5,6.5C 47.5981,7.39695 47.5981,8.23029 46.5,9C 36.1506,9.8323 25.8172,9.66563 15.5,8.5C 15.8627,7.81654 16.1961,7.14987 16.5,6.5C 16.8417,5.66175 17.5084,5.32842 18.5,5.5C 18.9175,6.22158 19.5842,6.72158 20.5,7C 27.8333,7.66667 35.1667,7.66667 42.5,7C 43.5981,6.23029 43.5981,5.39695 42.5,4.5 Z"/></g>
<g><path style="opacity:1" fill="#7e94ca" d="M 16.5,6.5 C 16.1961,7.14987 15.8627,7.81654 15.5,8.5C 25.8172,9.66563 36.1506,9.8323 46.5,9C 47.5981,8.23029 47.5981,7.39695 46.5,6.5C 48.0269,6.42702 49.0269,7.09368 49.5,8.5C 49.9528,9.45837 50.6195,10.2917 51.5,11C 44.8333,11.1667 38.1667,11.3333 31.5,11.5C 24.4649,11.4968 17.7983,10.8301 11.5,9.5C 12.6594,7.74973 14.326,6.74973 16.5,6.5 Z"/></g>
<g><path style="opacity:1" fill="#839abf" d="M 49.5,8.5 C 51.0269,8.42702 52.0269,9.09368 52.5,10.5C 38.8255,12.188 24.8255,13.188 10.5,13.5C 9.70245,13.0431 9.36912,12.3764 9.5,11.5C 9.83333,10.5 10.5,9.83333 11.5,9.5C 17.7983,10.8301 24.4649,11.4968 31.5,11.5C 38.1667,11.3333 44.8333,11.1667 51.5,11C 50.6195,10.2917 49.9528,9.45837 49.5,8.5 Z"/></g>
<g><path style="opacity:1" fill="#8a9faf" d="M 52.5,10.5 C 54.2624,11.2623 55.2624,12.5956 55.5,14.5C 55.6309,15.3764 55.2975,16.0431 54.5,16.5C 52.9291,15.6906 51.2624,15.3573 49.5,15.5C 47.3927,14.6996 45.2261,14.0329 43,13.5C 41.6244,13.6842 40.7911,14.3509 40.5,15.5C 34.5,15.5 28.5,15.5 22.5,15.5C 22.0296,14.3065 21.0296,13.6399 19.5,13.5C 16.9709,14.0255 14.6376,15.0255 12.5,16.5C 9.8915,16.4003 7.55817,17.0669 5.5,18.5C 5.5,17.8333 5.5,17.1667 5.5,16.5C 6.1237,14.246 7.45703,12.5794 9.5,11.5C 9.36912,12.3764 9.70245,13.0431 10.5,13.5C 24.8255,13.188 38.8255,12.188 52.5,10.5 Z"/></g>
<g><path style="opacity:1" fill="#483519" d="M 22.5,15.5 C 19.0283,15.1262 16.0283,16.1262 13.5,18.5C 12.7025,18.0431 12.3691,17.3764 12.5,16.5C 14.6376,15.0255 16.9709,14.0255 19.5,13.5C 21.0296,13.6399 22.0296,14.3065 22.5,15.5 Z"/></g>
<g><path style="opacity:1" fill="#49351a" d="M 49.5,15.5 C 51.129,17.1959 50.7957,18.1959 48.5,18.5C 46.3826,16.3455 43.716,15.3455 40.5,15.5C 40.7911,14.3509 41.6244,13.6842 43,13.5C 45.2261,14.0329 47.3927,14.6996 49.5,15.5 Z"/></g>
<g><path style="opacity:1" fill="#98b09f" d="M 22.5,15.5 C 28.5,15.5 34.5,15.5 40.5,15.5C 43.716,15.3455 46.3826,16.3455 48.5,18.5C 34.0824,18.0646 19.749,18.7313 5.5,20.5C 5.5,19.8333 5.5,19.1667 5.5,18.5C 7.55817,17.0669 9.8915,16.4003 12.5,16.5C 12.3691,17.3764 12.7025,18.0431 13.5,18.5C 16.0283,16.1262 19.0283,15.1262 22.5,15.5 Z"/></g>
<g><path style="opacity:1" fill="#a1b394" d="M 55.5,14.5 C 56.1667,14.5 56.5,14.8333 56.5,15.5C 56.2865,17.1439 56.6198,18.6439 57.5,20C 44.5082,19.7073 31.5082,19.7073 18.5,20C 13.8633,20.3065 9.36334,21.1398 5,22.5C 4.30831,21.5632 4.47498,20.8966 5.5,20.5C 19.749,18.7313 34.0824,18.0646 48.5,18.5C 50.7957,18.1959 51.129,17.1959 49.5,15.5C 51.2624,15.3573 52.9291,15.6906 54.5,16.5C 55.2975,16.0431 55.6309,15.3764 55.5,14.5 Z"/></g>
<g><path style="opacity:1" fill="#acbc86" d="M 56.5,15.5 C 57.9313,16.7804 58.5979,18.4471 58.5,20.5C 58.6567,21.8734 58.49,23.2068 58,24.5C 57.044,23.1059 55.7106,22.4393 54,22.5C 45.1886,23.1317 36.3553,23.465 27.5,23.5C 19.1376,23.4978 11.1376,22.8311 3.5,21.5C 3.79586,19.597 4.46253,17.9303 5.5,16.5C 5.5,17.1667 5.5,17.8333 5.5,18.5C 5.5,19.1667 5.5,19.8333 5.5,20.5C 4.47498,20.8966 4.30831,21.5632 5,22.5C 9.36334,21.1398 13.8633,20.3065 18.5,20C 31.5082,19.7073 44.5082,19.7073 57.5,20C 56.6198,18.6439 56.2865,17.1439 56.5,15.5 Z"/></g>
<g><path style="opacity:1" fill="#bcbf70" d="M 58.5,20.5 C 59.404,21.209 59.7373,22.209 59.5,23.5C 59.634,25.2915 59.3007,26.9582 58.5,28.5C 56.0428,27.977 53.7094,27.1437 51.5,26C 48.9615,25.2042 46.6282,25.3709 44.5,26.5C 42.4168,24.3956 40.0835,24.0623 37.5,25.5C 33.2984,25.1832 29.2984,25.5166 25.5,26.5C 22.3958,23.6118 19.7291,23.9451 17.5,27.5C 12.7668,27.2232 8.10009,27.5565 3.5,28.5C 2.70245,28.0431 2.36912,27.3764 2.5,26.5C 2.21552,24.5853 2.54885,22.9187 3.5,21.5C 11.1376,22.8311 19.1376,23.4978 27.5,23.5C 36.3553,23.465 45.1886,23.1317 54,22.5C 55.7106,22.4393 57.044,23.1059 58,24.5C 58.49,23.2068 58.6567,21.8734 58.5,20.5 Z"/></g>
<g><path style="opacity:1" fill="#4b3411" d="M 25.5,26.5 C 25.5,27.5 25.5,28.5 25.5,29.5C 25.2671,31.0618 24.6005,32.3951 23.5,33.5C 23.1667,33.5 22.8333,33.5 22.5,33.5C 19.6333,33.6308 17.9666,32.2974 17.5,29.5C 17.5,28.8333 17.5,28.1667 17.5,27.5C 19.7291,23.9451 22.3958,23.6118 25.5,26.5 Z"/></g>
<g><path style="opacity:1" fill="#4e3712" d="M 44.5,26.5 C 44.5,27.8333 44.5,29.1667 44.5,30.5C 43.656,32.7593 41.9893,33.7593 39.5,33.5C 39.1667,33.5 38.8333,33.5 38.5,33.5C 37.3995,32.3951 36.7329,31.0618 36.5,29.5C 36.4326,28.0413 36.7659,26.7079 37.5,25.5C 40.0835,24.0623 42.4168,24.3956 44.5,26.5 Z"/></g>
<g><path style="opacity:1" fill="#ccd162" d="M 37.5,25.5 C 36.7659,26.7079 36.4326,28.0413 36.5,29.5C 32.8333,29.5 29.1667,29.5 25.5,29.5C 25.5,28.5 25.5,27.5 25.5,26.5C 29.2984,25.5166 33.2984,25.1832 37.5,25.5 Z"/></g>
<g><path style="opacity:1" fill="#cdc45b" d="M 58.5,28.5 C 58.7678,30.099 58.4345,31.4324 57.5,32.5C 53.461,30.0144 49.1277,29.3477 44.5,30.5C 44.5,29.1667 44.5,27.8333 44.5,26.5C 46.6282,25.3709 48.9615,25.2042 51.5,26C 53.7094,27.1437 56.0428,27.977 58.5,28.5 Z"/></g>
<g><path style="opacity:1" fill="#d6c04f" d="M 2.5,26.5 C 2.36912,27.3764 2.70245,28.0431 3.5,28.5C 8.10009,27.5565 12.7668,27.2232 17.5,27.5C 17.5,28.1667 17.5,28.8333 17.5,29.5C 14.0762,29.9346 11.0762,31.268 8.5,33.5C 6.90097,33.2322 5.56764,33.5655 4.5,34.5C 3.60433,33.4937 2.93767,33.4937 2.5,34.5C 1.16667,31.8333 1.16667,29.1667 2.5,26.5 Z"/></g>
<g><path style="opacity:1" fill="#dcd54b" d="M 25.5,29.5 C 29.1667,29.5 32.8333,29.5 36.5,29.5C 36.7329,31.0618 37.3995,32.3951 38.5,33.5C 33.5,33.5 28.5,33.5 23.5,33.5C 24.6005,32.3951 25.2671,31.0618 25.5,29.5 Z"/></g>
<g><path style="opacity:1" fill="#decf44" d="M 17.5,29.5 C 17.9666,32.2974 19.6333,33.6308 22.5,33.5C 19.5,34.1667 16.5,34.8333 13.5,35.5C 11.4471,35.5979 9.78041,34.9313 8.5,33.5C 11.0762,31.268 14.0762,29.9346 17.5,29.5 Z"/></g>
<g><path style="opacity:1" fill="#e0cd44" d="M 57.5,32.5 C 57.5,34.5 56.5,35.5 54.5,35.5C 51.9455,34.612 49.2788,34.2786 46.5,34.5C 43.9407,34.8016 41.6074,34.4682 39.5,33.5C 41.9893,33.7593 43.656,32.7593 44.5,30.5C 49.1277,29.3477 53.461,30.0144 57.5,32.5 Z"/></g>
<g><path style="opacity:1" fill="#f6c02b" d="M 59.5,23.5 C 60.4731,25.9479 60.8064,28.6146 60.5,31.5C 56.9773,47.8498 46.8107,56.5165 30,57.5C 24.8647,57.2886 20.0314,55.9553 15.5,53.5C 14.8933,53.6236 14.56,53.9569 14.5,54.5C 13.5084,54.6716 12.8417,54.3382 12.5,53.5C 12.9382,53.5654 13.2716,53.3988 13.5,53C 9.91302,49.4667 7.41302,45.3 6,40.5C 5.50649,38.8659 5.33982,37.1992 5.5,35.5C 6.5,35.5 7.5,35.5 8.5,35.5C 13.4701,50.6553 23.8034,56.4886 39.5,53C 47.5561,49.7778 52.5561,43.9445 54.5,35.5C 56.5,35.5 57.5,34.5 57.5,32.5C 58.4345,31.4324 58.7678,30.099 58.5,28.5C 59.3007,26.9582 59.634,25.2915 59.5,23.5 Z"/></g>
<g><path style="opacity:1" fill="#f4ca2d" d="M 8.5,33.5 C 9.78041,34.9313 11.4471,35.5979 13.5,35.5C 14.5,35.5 15.5,35.5 16.5,35.5C 16.6349,39.6271 18.6349,42.2938 22.5,43.5C 20.9829,45.9358 21.3162,48.1024 23.5,50C 28.8333,50.6667 34.1667,50.6667 39.5,50C 41.6838,48.1024 42.0171,45.9358 40.5,43.5C 44.209,41.7766 46.209,38.7766 46.5,34.5C 49.2788,34.2786 51.9455,34.612 54.5,35.5C 52.5561,43.9445 47.5561,49.7778 39.5,53C 23.8034,56.4886 13.4701,50.6553 8.5,35.5C 7.5,35.5 6.5,35.5 5.5,35.5C 4.83333,35.5 4.5,35.1667 4.5,34.5C 5.56764,33.5655 6.90097,33.2322 8.5,33.5 Z"/></g>
<g><path style="opacity:1" fill="#f7dc32" d="M 22.5,33.5 C 22.8333,33.5 23.1667,33.5 23.5,33.5C 28.5,33.5 33.5,33.5 38.5,33.5C 38.8333,33.5 39.1667,33.5 39.5,33.5C 41.6074,34.4682 43.9407,34.8016 46.5,34.5C 46.209,38.7766 44.209,41.7766 40.5,43.5C 34.4679,38.254 28.4679,38.254 22.5,43.5C 18.6349,42.2938 16.6349,39.6271 16.5,35.5C 15.5,35.5 14.5,35.5 13.5,35.5C 16.5,34.8333 19.5,34.1667 22.5,33.5 Z"/></g>
<g><path style="opacity:0.728" fill="#f3a721" d="M 4.5,34.5 C 4.5,35.1667 4.83333,35.5 5.5,35.5C 5.33982,37.1992 5.50649,38.8659 6,40.5C 7.41302,45.3 9.91302,49.4667 13.5,53C 13.2716,53.3988 12.9382,53.5654 12.5,53.5C 5.77572,49.0219 2.44239,42.6886 2.5,34.5C 2.93767,33.4937 3.60433,33.4937 4.5,34.5 Z"/></g>
<g><path style="opacity:1" fill="#462f0e" d="M 40.5,43.5 C 42.0171,45.9358 41.6838,48.1024 39.5,50C 34.1667,50.6667 28.8333,50.6667 23.5,50C 21.3162,48.1024 20.9829,45.9358 22.5,43.5C 28.4679,38.254 34.4679,38.254 40.5,43.5 Z"/></g>
<g><path style="opacity:0.998" fill="#ed9407" d="M 60.5,31.5 C 59.2802,49.7228 49.4469,59.0561 31,59.5C 24.9054,59.4398 19.4054,57.7732 14.5,54.5C 14.56,53.9569 14.8933,53.6236 15.5,53.5C 20.0314,55.9553 24.8647,57.2886 30,57.5C 46.8107,56.5165 56.9773,47.8498 60.5,31.5 Z"/></g>
</svg>
