<?xml version="1.0" encoding="UTF-8"?>
<!DOCTYPE svg PUBLIC "-//W3C//DTD SVG 1.1//EN" "http://www.w3.org/Graphics/SVG/1.1/DTD/svg11.dtd">
<svg xmlns="http://www.w3.org/2000/svg" version="1.1" width="64px" height="64px" style="shape-rendering:geometricPrecision; text-rendering:geometricPrecision; image-rendering:optimizeQuality; fill-rule:evenodd; clip-rule:evenodd" xmlns:xlink="http://www.w3.org/1999/xlink">
<g><path style="opacity:1" fill="#f4af28" d="M 55.5,13.5 C 54.9033,13.7352 54.5699,14.2352 54.5,15C 57.87,19.1943 59.2034,24.0277 58.5,29.5C 58.7058,33.4687 58.0392,37.1354 56.5,40.5C 56.7386,34.4348 56.2386,28.4348 55,22.5C 53.896,19.2788 52.0626,16.6122 49.5,14.5C 49.2294,12.5695 48.2294,11.2362 46.5,10.5C 47.0431,10.44 47.3764,10.1067 47.5,9.5C 42.7558,5.60196 37.2558,3.9353 31,4.5C 24.8668,3.76562 19.7002,5.59896 15.5,10C 15.7284,10.3988 16.0618,10.5654 16.5,10.5C 15.5707,11.3149 14.5707,12.1482 13.5,13C 14.0944,13.4643 14.7611,13.631 15.5,13.5C 14.1225,14.2344 12.6225,14.9011 11,15.5C 6.57235,22.2385 4.90568,29.5719 6,37.5C 7.36569,35.6383 8.86569,33.9717 10.5,32.5C 11.4884,33.795 12.4884,35.1283 13.5,36.5C 8.8176,36.8748 7.48427,39.2082 9.5,43.5C 14.7853,45.8573 17.452,44.1906 17.5,38.5C 18.8061,44.5335 16.1394,47.2002 9.5,46.5C 9.74381,49.2626 11.0771,51.4293 13.5,53C 13.2716,53.3988 12.9382,53.5654 12.5,53.5C 5.22117,47.7122 1.5545,40.0455 1.5,30.5C 4.30373,9.57401 16.3037,0.407339 37.5,3C 44.9346,4.21145 50.9346,7.71145 55.5,13.5 Z"/></g>
<g><path style="opacity:1" fill="#4d350f" d="M 16.5,10.5 C 19.0728,10.1485 21.4062,10.6485 23.5,12C 20.7462,12.2724 18.0795,12.7724 15.5,13.5C 14.7611,13.631 14.0944,13.4643 13.5,13C 14.5707,12.1482 15.5707,11.3149 16.5,10.5 Z"/></g>
<g><path style="opacity:1" fill="#593f11" d="M 46.5,10.5 C 48.2294,11.2362 49.2294,12.5695 49.5,14.5C 46.0336,12.9084 42.3669,12.2417 38.5,12.5C 38.5,12.1667 38.5,11.8333 38.5,11.5C 41.0545,10.612 43.7212,10.2786 46.5,10.5 Z"/></g>
<g><path style="opacity:1" fill="#f7c62e" d="M 46.5,10.5 C 43.7212,10.2786 41.0545,10.612 38.5,11.5C 34.0798,9.30435 29.4132,8.97101 24.5,10.5C 24.5,11.5 24.5,12.5 24.5,13.5C 18.5674,13.1044 14.9007,15.7711 13.5,21.5C 10.9439,24.6677 9.94386,28.3344 10.5,32.5C 8.86569,33.9717 7.36569,35.6383 6,37.5C 4.90568,29.5719 6.57235,22.2385 11,15.5C 12.6225,14.9011 14.1225,14.2344 15.5,13.5C 18.0795,12.7724 20.7462,12.2724 23.5,12C 21.4062,10.6485 19.0728,10.1485 16.5,10.5C 16.0618,10.5654 15.7284,10.3988 15.5,10C 19.7002,5.59896 24.8668,3.76562 31,4.5C 37.2558,3.9353 42.7558,5.60196 47.5,9.5C 47.3764,10.1067 47.0431,10.44 46.5,10.5 Z"/></g>
<g><path style="opacity:1" fill="#fbda31" d="M 38.5,11.5 C 38.5,11.8333 38.5,12.1667 38.5,12.5C 44.5727,13.2314 48.5727,16.5647 50.5,22.5C 38.9139,18.5874 34.4139,22.5874 37,34.5C 38.1451,35.6364 39.3117,36.6364 40.5,37.5C 40.2924,39.9201 40.6258,42.2534 41.5,44.5C 43.3159,45.8149 44.9825,47.3149 46.5,49C 36.7936,56.1083 26.9603,56.275 17,49.5C 18.9758,45.9137 19.8091,41.9137 19.5,37.5C 25.7624,35.9935 28.2624,31.9935 27,25.5C 23.5515,20.7278 19.0515,19.3944 13.5,21.5C 14.9007,15.7711 18.5674,13.1044 24.5,13.5C 24.5,12.5 24.5,11.5 24.5,10.5C 29.4132,8.97101 34.0798,9.30435 38.5,11.5 Z"/></g>
<g><path style="opacity:1" fill="#fbf9f4" d="M 19.5,37.5 C 18.8333,37.5 18.1667,37.5 17.5,37.5C 16.1667,37.1667 14.8333,36.8333 13.5,36.5C 12.4884,35.1283 11.4884,33.795 10.5,32.5C 9.94386,28.3344 10.9439,24.6677 13.5,21.5C 19.0515,19.3944 23.5515,20.7278 27,25.5C 28.2624,31.9935 25.7624,35.9935 19.5,37.5 Z"/></g>
<g><path style="opacity:1" fill="#fcfaf4" d="M 50.5,22.5 C 53.645,27.8201 52.9784,32.4868 48.5,36.5C 46.6208,37.3414 44.6208,37.6747 42.5,37.5C 41.8333,37.5 41.1667,37.5 40.5,37.5C 39.3117,36.6364 38.1451,35.6364 37,34.5C 34.4139,22.5874 38.9139,18.5874 50.5,22.5 Z"/></g>
<g><path style="opacity:1" fill="#493216" d="M 16.5,25.5 C 21.2137,25.2008 22.8804,27.2008 21.5,31.5C 15.7403,33.2126 14.0736,31.2126 16.5,25.5 Z"/></g>
<g><path style="opacity:1" fill="#4b3418" d="M 42.5,25.5 C 47.3276,25.3852 48.6609,27.5519 46.5,32C 40.3389,32.878 39.0055,30.7113 42.5,25.5 Z"/></g>
<g><path style="opacity:1" fill="#f4a650" d="M 48.5,36.5 C 51.8823,38.5807 52.2157,41.0807 49.5,44C 43.5062,45.8406 41.1729,43.6739 42.5,37.5C 44.6208,37.6747 46.6208,37.3414 48.5,36.5 Z"/></g>
<g><path style="opacity:1" fill="#f3a24f" d="M 13.5,36.5 C 14.8333,36.8333 16.1667,37.1667 17.5,37.5C 17.5,37.8333 17.5,38.1667 17.5,38.5C 17.452,44.1906 14.7853,45.8573 9.5,43.5C 7.48427,39.2082 8.8176,36.8748 13.5,36.5 Z"/></g>
<g><path style="opacity:1" fill="#f6c02f" d="M 38.5,12.5 C 42.3669,12.2417 46.0336,12.9084 49.5,14.5C 52.0626,16.6122 53.896,19.2788 55,22.5C 56.2386,28.4348 56.7386,34.4348 56.5,40.5C 51.4754,51.7799 42.6421,57.4466 30,57.5C 24.8647,57.2886 20.0314,55.9553 15.5,53.5C 14.8933,53.6236 14.56,53.9569 14.5,54.5C 13.5084,54.6716 12.8417,54.3382 12.5,53.5C 12.9382,53.5654 13.2716,53.3988 13.5,53C 11.0771,51.4293 9.74381,49.2626 9.5,46.5C 16.1394,47.2002 18.8061,44.5335 17.5,38.5C 17.5,38.1667 17.5,37.8333 17.5,37.5C 18.1667,37.5 18.8333,37.5 19.5,37.5C 19.8091,41.9137 18.9758,45.9137 17,49.5C 26.9603,56.275 36.7936,56.1083 46.5,49C 44.9825,47.3149 43.3159,45.8149 41.5,44.5C 40.6258,42.2534 40.2924,39.9201 40.5,37.5C 41.1667,37.5 41.8333,37.5 42.5,37.5C 41.1729,43.6739 43.5062,45.8406 49.5,44C 52.2157,41.0807 51.8823,38.5807 48.5,36.5C 52.9784,32.4868 53.645,27.8201 50.5,22.5C 48.5727,16.5647 44.5727,13.2314 38.5,12.5 Z"/></g>
<g><path style="opacity:1" fill="#39260c" d="M 26.5,45.5 C 29.8333,45.5 33.1667,45.5 36.5,45.5C 36.5,46.8333 36.5,48.1667 36.5,49.5C 33.1501,49.665 29.8168,49.4983 26.5,49C 25.3157,47.8545 25.3157,46.6879 26.5,45.5 Z"/></g>
<g><path style="opacity:1" fill="#ed9508" d="M 55.5,13.5 C 62.5581,26.1318 62.0581,38.4652 54,50.5C 41.6512,60.6978 28.4846,62.0311 14.5,54.5C 14.56,53.9569 14.8933,53.6236 15.5,53.5C 20.0314,55.9553 24.8647,57.2886 30,57.5C 42.6421,57.4466 51.4754,51.7799 56.5,40.5C 58.0392,37.1354 58.7058,33.4687 58.5,29.5C 59.2034,24.0277 57.87,19.1943 54.5,15C 54.5699,14.2352 54.9033,13.7352 55.5,13.5 Z"/></g>
</svg>
