<?xml version="1.0" encoding="UTF-8"?>
<!DOCTYPE svg PUBLIC "-//W3C//DTD SVG 1.1//EN" "http://www.w3.org/Graphics/SVG/1.1/DTD/svg11.dtd">
<svg xmlns="http://www.w3.org/2000/svg" version="1.1" width="64px" height="64px" style="shape-rendering:geometricPrecision; text-rendering:geometricPrecision; image-rendering:optimizeQuality; fill-rule:evenodd; clip-rule:evenodd" xmlns:xlink="http://www.w3.org/1999/xlink">
<g><path style="opacity:1" fill="#f7c12a" d="M 54.5,16.5 C 56.61,17.4525 57.7767,19.1192 58,21.5C 60.566,46.2677 49.3994,58.1011 24.5,57C 21.3819,56.1275 18.3819,54.9608 15.5,53.5C 14.8933,53.6236 14.56,53.9569 14.5,54.5C 13.5084,54.6716 12.8417,54.3382 12.5,53.5C 12.9382,53.5654 13.2716,53.3988 13.5,53C 4.59577,43.0307 2.09577,31.5307 6,18.5C 9.50788,15.3246 12.6745,11.8246 15.5,8C 25.3998,3.55244 35.3998,3.38577 45.5,7.5C 48.2787,10.7269 51.2787,13.7269 54.5,16.5 Z"/></g>
<g><path style="opacity:0.941" fill="#f4a623" d="M 55.5,13.5 C 54.596,14.209 54.2627,15.209 54.5,16.5C 51.2787,13.7269 48.2787,10.7269 45.5,7.5C 35.3998,3.38577 25.3998,3.55244 15.5,8C 12.6745,11.8246 9.50788,15.3246 6,18.5C 2.09577,31.5307 4.59577,43.0307 13.5,53C 13.2716,53.3988 12.9382,53.5654 12.5,53.5C 5.22117,47.7122 1.5545,40.0455 1.5,30.5C 4.30373,9.57401 16.3037,0.407339 37.5,3C 44.9346,4.21145 50.9346,7.71145 55.5,13.5 Z"/></g>
<g><path style="opacity:1" fill="#f8cb2c" d="M 26.5,7.5 C 46.1417,7.30704 55.3083,16.9737 54,36.5C 46.7378,54.0296 34.5712,58.5296 17.5,50C 4.16667,37.3333 4.16667,24.6667 17.5,12C 20.4375,10.1991 23.4375,8.69914 26.5,7.5 Z"/></g>
<g><path style="opacity:1" fill="#503810" d="M 22.5,16.5 C 22.5,16.8333 22.5,17.1667 22.5,17.5C 18.7073,17.7312 15.3739,19.0645 12.5,21.5C 14.372,16.5632 17.7054,14.8965 22.5,16.5 Z"/></g>
<g><path style="opacity:1" fill="#594011" d="M 50.5,21.5 C 47.6484,19.9091 44.6484,18.5758 41.5,17.5C 41.1667,17.5 40.8333,17.5 40.5,17.5C 41.2039,15.6558 42.5372,15.1558 44.5,16C 47.6411,16.7146 49.6411,18.5479 50.5,21.5 Z"/></g>
<g><path style="opacity:1" fill="#fbdd2f" d="M 40.5,17.5 C 40.8333,17.5 41.1667,17.5 41.5,17.5C 43.9592,20.0872 45.6258,23.0872 46.5,26.5C 45.5039,27.6651 44.1705,28.3318 42.5,28.5C 40.8333,27.8333 39.1667,27.1667 37.5,26.5C 36.8333,26.8333 36.1667,27.1667 35.5,27.5C 38.0802,31.9613 41.7469,33.2947 46.5,31.5C 47.015,36.5105 45.1816,40.8439 41,44.5C 40.7216,43.5842 40.2216,42.9175 39.5,42.5C 34.1374,45.0794 28.8041,45.0794 23.5,42.5C 22.7784,42.9175 22.2784,43.5842 22,44.5C 17.2734,41.0841 15.44,36.7507 16.5,31.5C 21.788,33.523 25.1214,31.8563 26.5,26.5C 24.2532,26.9153 22.0865,27.5819 20,28.5C 18.3009,28.6134 17.1342,27.9468 16.5,26.5C 16.9319,22.4103 18.9319,19.4103 22.5,17.5C 22.5,17.1667 22.5,16.8333 22.5,16.5C 28.6941,13.6242 34.6941,13.9575 40.5,17.5 Z"/></g>
<g><path style="opacity:1" fill="#f6cf2d" d="M 22.5,17.5 C 18.9319,19.4103 16.9319,22.4103 16.5,26.5C 15.325,26.281 14.325,26.6143 13.5,27.5C 14.1716,29.1595 15.1716,30.4928 16.5,31.5C 15.44,36.7507 17.2734,41.0841 22,44.5C 22.2784,43.5842 22.7784,42.9175 23.5,42.5C 23.6077,47.576 26.2744,49.9093 31.5,49.5C 36.7256,49.9093 39.3923,47.576 39.5,42.5C 40.2216,42.9175 40.7216,43.5842 41,44.5C 45.1816,40.8439 47.015,36.5105 46.5,31.5C 48.69,30.6255 49.69,28.9589 49.5,26.5C 48.5,26.5 47.5,26.5 46.5,26.5C 45.6258,23.0872 43.9592,20.0872 41.5,17.5C 44.6484,18.5758 47.6484,19.9091 50.5,21.5C 55.1412,38.8899 48.6412,49.2232 31,52.5C 13.5189,48.8665 7.35224,38.5332 12.5,21.5C 15.3739,19.0645 18.7073,17.7312 22.5,17.5 Z"/></g>
<g><path style="opacity:1" fill="#4e370f" d="M 16.5,26.5 C 17.1342,27.9468 18.3009,28.6134 20,28.5C 22.0865,27.5819 24.2532,26.9153 26.5,26.5C 25.1214,31.8563 21.788,33.523 16.5,31.5C 15.1716,30.4928 14.1716,29.1595 13.5,27.5C 14.325,26.6143 15.325,26.281 16.5,26.5 Z"/></g>
<g><path style="opacity:1" fill="#513910" d="M 46.5,26.5 C 47.5,26.5 48.5,26.5 49.5,26.5C 49.69,28.9589 48.69,30.6255 46.5,31.5C 41.7469,33.2947 38.0802,31.9613 35.5,27.5C 36.1667,27.1667 36.8333,26.8333 37.5,26.5C 39.1667,27.1667 40.8333,27.8333 42.5,28.5C 44.1705,28.3318 45.5039,27.6651 46.5,26.5 Z"/></g>
<g><path style="opacity:1" fill="#4c340f" d="M 23.5,42.5 C 28.8041,45.0794 34.1374,45.0794 39.5,42.5C 39.3923,47.576 36.7256,49.9093 31.5,49.5C 26.2744,49.9093 23.6077,47.576 23.5,42.5 Z"/></g>
<g><path style="opacity:1" fill="#ed9508" d="M 55.5,13.5 C 62.5581,26.1318 62.0581,38.4652 54,50.5C 41.6512,60.6978 28.4846,62.0311 14.5,54.5C 14.56,53.9569 14.8933,53.6236 15.5,53.5C 18.3819,54.9608 21.3819,56.1275 24.5,57C 49.3994,58.1011 60.566,46.2677 58,21.5C 57.7767,19.1192 56.61,17.4525 54.5,16.5C 54.2627,15.209 54.596,14.209 55.5,13.5 Z"/></g>
</svg>
