<?xml version="1.0" encoding="UTF-8"?>
<!DOCTYPE svg PUBLIC "-//W3C//DTD SVG 1.1//EN" "http://www.w3.org/Graphics/SVG/1.1/DTD/svg11.dtd">
<svg xmlns="http://www.w3.org/2000/svg" version="1.1" width="64px" height="64px" style="shape-rendering:geometricPrecision; text-rendering:geometricPrecision; image-rendering:optimizeQuality; fill-rule:evenodd; clip-rule:evenodd" xmlns:xlink="http://www.w3.org/1999/xlink">
<g><path style="opacity:1" fill="#f7c02a" d="M 54.5,16.5 C 56.61,17.4525 57.7767,19.1192 58,21.5C 60.566,46.2677 49.3994,58.1011 24.5,57C 21.3819,56.1275 18.3819,54.9608 15.5,53.5C 14.8933,53.6236 14.56,53.9569 14.5,54.5C 13.5084,54.6716 12.8417,54.3382 12.5,53.5C 12.9382,53.5654 13.2716,53.3988 13.5,53C 4.59577,43.0307 2.09577,31.5307 6,18.5C 9.50788,15.3246 12.6745,11.8246 15.5,8C 25.3998,3.55244 35.3998,3.38577 45.5,7.5C 48.2787,10.7269 51.2787,13.7269 54.5,16.5 Z"/></g>
<g><path style="opacity:1" fill="#f7ce2d" d="M 26.5,7.5 C 46.1417,7.30704 55.3083,16.9737 54,36.5C 46.7378,54.0296 34.5712,58.5296 17.5,50C 4.16667,37.3333 4.16667,24.6667 17.5,12C 20.4375,10.1991 23.4375,8.69914 26.5,7.5 Z"/></g>
<g><path style="opacity:1" fill="#f9dc2f" d="M 39.5,20.5 C 36.1637,22.5266 35.6637,25.1932 38,28.5C 41.4484,30.2635 43.615,29.2635 44.5,25.5C 45.2216,25.0825 45.7216,24.4158 46,23.5C 49.0143,31.2985 47.5143,37.9652 41.5,43.5C 38.6992,35.6173 33.3659,33.4506 25.5,37C 23.0771,38.5707 21.7438,40.7374 21.5,43.5C 15.8515,38.8283 14.0181,32.8283 16,25.5C 16.2784,24.5842 16.7784,23.9175 17.5,23.5C 17.2887,27.9836 19.2887,29.8169 23.5,29C 26.4468,25.6569 26.1135,22.8236 22.5,20.5C 19.8749,19.5595 19.8749,18.3928 22.5,17C 29.5861,13.3452 36.2528,14.0119 42.5,19C 41.2625,19.2321 40.2625,19.7321 39.5,20.5 Z"/></g>
<g><path style="opacity:1" fill="#523911" d="M 39.5,20.5 C 43.5,19.8333 45.1667,21.5 44.5,25.5C 43.615,29.2635 41.4484,30.2635 38,28.5C 35.6637,25.1932 36.1637,22.5266 39.5,20.5 Z"/></g>
<g><path style="opacity:1" fill="#4f3610" d="M 22.5,20.5 C 26.1135,22.8236 26.4468,25.6569 23.5,29C 19.2887,29.8169 17.2887,27.9836 17.5,23.5C 18.4006,21.2729 20.0672,20.2729 22.5,20.5 Z"/></g>
<g><path style="opacity:1" fill="#f4a722" d="M 55.5,13.5 C 54.596,14.209 54.2627,15.209 54.5,16.5C 51.2787,13.7269 48.2787,10.7269 45.5,7.5C 35.3998,3.38577 25.3998,3.55244 15.5,8C 12.6745,11.8246 9.50788,15.3246 6,18.5C 2.09577,31.5307 4.59577,43.0307 13.5,53C 13.2716,53.3988 12.9382,53.5654 12.5,53.5C 5.22117,47.7122 1.5545,40.0455 1.5,30.5C 4.30373,9.57401 16.3037,0.407339 37.5,3C 44.9346,4.21145 50.9346,7.71145 55.5,13.5 Z"/></g>
<g><path style="opacity:1" fill="#442d0d" d="M 41.5,43.5 C 39.6654,48.1734 36.1654,50.1734 31,49.5C 26.1302,50.121 22.9636,48.121 21.5,43.5C 21.7438,40.7374 23.0771,38.5707 25.5,37C 33.3659,33.4506 38.6992,35.6173 41.5,43.5 Z"/></g>
<g><path style="opacity:1" fill="#ed9508" d="M 55.5,13.5 C 62.5581,26.1318 62.0581,38.4652 54,50.5C 41.6512,60.6978 28.4846,62.0311 14.5,54.5C 14.56,53.9569 14.8933,53.6236 15.5,53.5C 18.3819,54.9608 21.3819,56.1275 24.5,57C 49.3994,58.1011 60.566,46.2677 58,21.5C 57.7767,19.1192 56.61,17.4525 54.5,16.5C 54.2627,15.209 54.596,14.209 55.5,13.5 Z"/></g>
</svg>
