<?xml version="1.0" encoding="UTF-8"?>
<!DOCTYPE svg PUBLIC "-//W3C//DTD SVG 1.1//EN" "http://www.w3.org/Graphics/SVG/1.1/DTD/svg11.dtd">
<svg xmlns="http://www.w3.org/2000/svg" version="1.1" width="64px" height="64px" style="shape-rendering:geometricPrecision; text-rendering:geometricPrecision; image-rendering:optimizeQuality; fill-rule:evenodd; clip-rule:evenodd" xmlns:xlink="http://www.w3.org/1999/xlink">
<g><path style="opacity:1" fill="#f7bf2a" d="M 48.5,7.5 C 50.9303,12.7026 54.0969,17.3693 58,21.5C 61.1098,42.9665 51.9431,54.9665 30.5,57.5C 17.4014,56.6753 8.73475,50.0086 4.5,37.5C 1.62109,25.6225 5.12109,16.2892 15,9.5C 15.4828,8.55198 15.6495,7.55198 15.5,6.5C 26.6748,0.903229 37.6748,1.23656 48.5,7.5 Z"/></g>
<g><path style="opacity:0.996" fill="#f09a13" d="M 15.5,6.5 C 15.6495,7.55198 15.4828,8.55198 15,9.5C 5.12109,16.2892 1.62109,25.6225 4.5,37.5C 8.73475,50.0086 17.4014,56.6753 30.5,57.5C 51.9431,54.9665 61.1098,42.9665 58,21.5C 54.0969,17.3693 50.9303,12.7026 48.5,7.5C 54.4008,11.2507 58.2342,16.584 60,23.5C 62.6604,45.539 52.9937,57.539 31,59.5C 6.23084,56.3069 -2.76916,42.6402 4,18.5C 6.66257,13.3382 10.4959,9.33824 15.5,6.5 Z"/></g>
<g><path style="opacity:1" fill="#f6c82c" d="M 26.5,7.5 C 45.6446,7.14384 54.8112,16.4772 54,35.5C 50.1291,48.6958 41.2957,54.8624 27.5,54C 9.32347,48.1576 3.82347,36.3243 11,18.5C 14.9549,13.033 20.1216,9.36633 26.5,7.5 Z"/></g>
<g><path style="opacity:1" fill="#e37468" d="M 39.5,48.5 C 39.0825,49.2216 38.4158,49.7216 37.5,50C 33.1667,50.6667 28.8333,50.6667 24.5,50C 23.5842,49.7216 22.9175,49.2216 22.5,48.5C 28.1368,44.5766 33.8035,44.5766 39.5,48.5 Z"/></g>
<g><path style="opacity:1" fill="#472f10" d="M 12.5,36.5 C 24.622,41.4787 36.9554,41.8121 49.5,37.5C 49.5,38.1667 49.5,38.8333 49.5,39.5C 47.4378,43.8947 44.1045,46.8947 39.5,48.5C 33.8035,44.5766 28.1368,44.5766 22.5,48.5C 17.9164,46.9177 14.5831,43.9177 12.5,39.5C 12.5,38.5 12.5,37.5 12.5,36.5 Z"/></g>
<g><path style="opacity:1" fill="#e2a337" d="M 14.5,33.5 C 25.5,36.1667 36.5,36.1667 47.5,33.5C 49.0618,33.7329 50.3951,34.3995 51.5,35.5C 51.3404,37.153 50.6737,38.4863 49.5,39.5C 49.5,38.8333 49.5,38.1667 49.5,37.5C 49.2089,36.3509 48.3756,35.6842 47,35.5C 36.3247,38.1306 25.658,38.1306 15,35.5C 13.9302,35.528 13.0968,35.8614 12.5,36.5C 12.5,37.5 12.5,38.5 12.5,39.5C 11.6618,39.1583 11.3284,38.4916 11.5,37.5C 11.0882,35.0274 12.0882,33.6941 14.5,33.5 Z"/></g>
<g><path style="opacity:1" fill="#f4f2ee" d="M 12.5,36.5 C 13.0968,35.8614 13.9302,35.528 15,35.5C 25.658,38.1306 36.3247,38.1306 47,35.5C 48.3756,35.6842 49.2089,36.3509 49.5,37.5C 36.9554,41.8121 24.622,41.4787 12.5,36.5 Z"/></g>
<g><path style="opacity:1" fill="#f8d22d" d="M 51.5,35.5 C 50.3951,34.3995 49.0618,33.7329 47.5,33.5C 47.6488,30.3926 47.1488,27.3926 46,24.5C 45.6174,25.056 45.1174,25.3893 44.5,25.5C 45.1667,21.5 43.5,19.8333 39.5,20.5C 40.2625,19.7321 41.2625,19.2321 42.5,19C 35.0958,13.0774 27.7625,13.0774 20.5,19C 21.4158,19.2784 22.0825,19.7784 22.5,20.5C 20.4862,20.3915 18.8195,21.0582 17.5,22.5C 15.4318,25.763 14.4318,29.4296 14.5,33.5C 12.0882,33.6941 11.0882,35.0274 11.5,37.5C 8.38053,27.686 11.0472,19.5193 19.5,13C 29.4812,7.71152 38.6479,8.87819 47,16.5C 51.5093,22.1999 53.0093,28.5332 51.5,35.5 Z"/></g>
<g><path style="opacity:1" fill="#4f3610" d="M 22.5,20.5 C 26.1135,22.8236 26.4468,25.6569 23.5,29C 18.964,29.5214 16.964,27.3548 17.5,22.5C 18.8195,21.0582 20.4862,20.3915 22.5,20.5 Z"/></g>
<g><path style="opacity:1" fill="#523911" d="M 39.5,20.5 C 43.5,19.8333 45.1667,21.5 44.5,25.5C 43.8716,28.9549 41.8716,30.1215 38.5,29C 35.5532,25.6569 35.8865,22.8236 39.5,20.5 Z"/></g>
<g><path style="opacity:1" fill="#fbdd2f" d="M 39.5,20.5 C 35.8865,22.8236 35.5532,25.6569 38.5,29C 41.8716,30.1215 43.8716,28.9549 44.5,25.5C 45.1174,25.3893 45.6174,25.056 46,24.5C 47.1488,27.3926 47.6488,30.3926 47.5,33.5C 36.5,36.1667 25.5,36.1667 14.5,33.5C 14.4318,29.4296 15.4318,25.763 17.5,22.5C 16.964,27.3548 18.964,29.5214 23.5,29C 26.4468,25.6569 26.1135,22.8236 22.5,20.5C 22.0825,19.7784 21.4158,19.2784 20.5,19C 27.7625,13.0774 35.0958,13.0774 42.5,19C 41.2625,19.2321 40.2625,19.7321 39.5,20.5 Z"/></g>
</svg>
