<?xml version="1.0" encoding="UTF-8"?>
<!DOCTYPE svg PUBLIC "-//W3C//DTD SVG 1.1//EN" "http://www.w3.org/Graphics/SVG/1.1/DTD/svg11.dtd">
<svg xmlns="http://www.w3.org/2000/svg" version="1.1" width="240px" height="240px" style="shape-rendering:geometricPrecision; text-rendering:geometricPrecision; image-rendering:optimizeQuality; fill-rule:evenodd; clip-rule:evenodd" xmlns:xlink="http://www.w3.org/1999/xlink">
<g><path style="opacity:0.883" fill="#f4a422" d="M 138.5,13.5 C 164.782,17.3907 186.949,29.0574 205,48.5C 206.421,50.4048 207.588,52.4048 208.5,54.5C 220.857,75.9538 225.524,98.9538 222.5,123.5C 222.164,114.473 221.497,105.473 220.5,96.5C 213.52,61.0655 193.52,35.8989 160.5,21C 153.156,18.1739 145.823,15.6739 138.5,13.5 Z"/></g>
<g><path style="opacity:1" fill="#f5b126" d="M 220.5,96.5 C 221.497,105.473 222.164,114.473 222.5,123.5C 220.924,143.247 214.257,160.914 202.5,176.5C 227.101,135.974 226.268,95.9742 200,56.5C 167.38,18.3007 127.213,7.46739 79.5,24C 31.7648,47.9674 11.9314,86.4674 20,139.5C 25.25,162.17 36.75,181.003 54.5,196C 61.7272,201.105 69.0605,205.939 76.5,210.5C 68.1248,208.144 60.4581,204.478 53.5,199.5C 47.8755,192.705 42.0421,186.038 36,179.5C 11.0294,142.424 9.02941,104.09 30,64.5C 53.7351,27.8847 87.5684,11.3847 131.5,15C 178.612,23.2844 208.279,50.4511 220.5,96.5 Z"/></g>
<g><path style="opacity:1" fill="#f6b828" d="M 202.5,176.5 C 198.719,182.07 194.053,186.737 188.5,190.5C 193.81,183.677 198.977,176.677 204,169.5C 227.249,124.662 222.083,83.4954 188.5,46C 151.381,14.2537 111.048,9.58704 67.5,32C 30.1805,56.9075 14.6805,91.7409 21,136.5C 27.1609,165.307 42.6609,187.474 67.5,203C 73.6466,205.729 79.3133,208.896 84.5,212.5C 81.6592,212.44 78.9925,211.774 76.5,210.5C 69.0605,205.939 61.7272,201.105 54.5,196C 36.75,181.003 25.25,162.17 20,139.5C 11.9314,86.4674 31.7648,47.9674 79.5,24C 127.213,7.46739 167.38,18.3007 200,56.5C 226.268,95.9742 227.101,135.974 202.5,176.5 Z"/></g>
<g><path style="opacity:1" fill="#f6bf2a" d="M 188.5,190.5 C 173.183,203.347 155.516,211.514 135.5,215C 118.259,217.645 101.259,216.812 84.5,212.5C 79.3133,208.896 73.6466,205.729 67.5,203C 42.6609,187.474 27.1609,165.307 21,136.5C 14.6805,91.7409 30.1805,56.9075 67.5,32C 111.048,9.58704 151.381,14.2537 188.5,46C 222.083,83.4954 227.249,124.662 204,169.5C 198.977,176.677 193.81,183.677 188.5,190.5 Z"/></g>
<g><path style="opacity:1" fill="#f7c22b" d="M 106.5,21.5 C 154.847,18.7554 189.013,39.4221 209,83.5C 223.29,131.217 210.456,169.717 170.5,199C 133.29,219.454 96.9566,218.121 61.5,195C 27.7766,166.827 16.2766,131.327 27,88.5C 40.6318,50.6875 67.1318,28.3542 106.5,21.5 Z"/></g>
<g><path style="opacity:0.73" fill="#f4a223" d="M 99.5,13.5 C 46.7391,27.7771 18.0724,62.2771 13.5,117C 13.8684,136.096 18.7018,153.93 28,170.5C 33.975,179.3 40.475,187.634 47.5,195.5C 38.8767,190.044 31.71,183.044 26,174.5C 25.3292,173.748 24.4959,173.414 23.5,173.5C 10.989,151.125 6.48896,127.125 10,101.5C 18.8013,50.8659 48.6347,21.5326 99.5,13.5 Z"/></g>
<g><path style="opacity:1" fill="#f8c52c" d="M 110.5,23.5 C 155.123,22.7172 186.957,42.3839 206,82.5C 220.861,128.908 209.028,166.741 170.5,196C 130.692,218.485 92.6917,215.818 56.5,188C 26.8964,158.752 18.3964,124.252 31,84.5C 45.9569,49.1067 72.4569,28.7734 110.5,23.5 Z"/></g>
<g><path style="opacity:1" fill="#f8ca2c" d="M 110.5,29.5 C 150.981,28.4797 180.481,45.813 199,81.5C 212.412,115.62 207.745,146.953 185,175.5C 156.099,204.815 122.266,212.315 83.5,198C 49.8461,181.642 32.1794,154.642 30.5,117C 35.4973,67.8425 62.164,38.6758 110.5,29.5 Z"/></g>
<g><path style="opacity:1" fill="#fad12d" d="M 157.5,185.5 C 154.238,180.898 150.572,176.565 146.5,172.5C 157.134,165.864 166.134,157.53 173.5,147.5C 181.059,148.27 184.726,144.937 184.5,137.5C 193.604,102.332 182.604,75.1654 151.5,56C 125.365,43.6814 100.365,45.6814 76.5,62C 51.727,83.6725 43.8936,110.506 53,142.5C 53.2321,141.263 53.7321,140.263 54.5,139.5C 55.1292,145.457 58.4626,148.123 64.5,147.5C 71.291,158.621 80.6243,166.955 92.5,172.5C 88.4283,176.565 84.7617,180.898 81.5,185.5C 55.6125,170.421 41.9458,147.754 40.5,117.5C 42.4667,82.0479 59.8001,57.5479 92.5,44C 131.714,33.1793 162.881,44.346 186,77.5C 201.915,108.994 199.582,138.994 179,167.5C 172.635,174.579 165.468,180.579 157.5,185.5 Z"/></g>
<g><path style="opacity:1" fill="#fbd72e" d="M 184.5,137.5 C 181.865,134.519 178.532,133.186 174.5,133.5C 175.568,132.566 176.901,132.232 178.5,132.5C 183.614,99.8941 171.614,76.0608 142.5,61C 113.829,51.3735 89.6624,57.8735 70,80.5C 58.88,96.2664 55.38,113.6 59.5,132.5C 61.4147,132.216 63.0813,132.549 64.5,133.5C 59.3827,132.63 56.0493,134.63 54.5,139.5C 53.7321,140.263 53.2321,141.263 53,142.5C 43.8936,110.506 51.727,83.6725 76.5,62C 100.365,45.6814 125.365,43.6814 151.5,56C 182.604,75.1654 193.604,102.332 184.5,137.5 Z"/></g>
<g><path style="opacity:1" fill="#fcde2f" d="M 174.5,133.5 C 171.5,133.5 168.5,133.5 165.5,133.5C 163.485,132.076 161.152,131.41 158.5,131.5C 153.319,129.408 148.319,127.074 143.5,124.5C 137.905,125.578 136.072,128.912 138,134.5C 148.083,143.452 159.917,147.785 173.5,147.5C 166.134,157.53 157.134,165.864 146.5,172.5C 128.434,160.532 110.434,160.532 92.5,172.5C 80.6243,166.955 71.291,158.621 64.5,147.5C 78.2331,147.423 90.3997,143.09 101,134.5C 103.04,128.648 101.04,125.315 95,124.5C 89.206,127.978 83.0394,130.811 76.5,133C 72.5138,133.499 68.5138,133.666 64.5,133.5C 63.0813,132.549 61.4147,132.216 59.5,132.5C 55.38,113.6 58.88,96.2664 70,80.5C 89.6624,57.8735 113.829,51.3735 142.5,61C 171.614,76.0608 183.614,99.8941 178.5,132.5C 176.901,132.232 175.568,132.566 174.5,133.5 Z"/></g>
<g><path style="opacity:1" fill="#f4ab25" d="M 138.5,13.5 C 145.823,15.6739 153.156,18.1739 160.5,21C 193.52,35.8989 213.52,61.0655 220.5,96.5C 208.279,50.4511 178.612,23.2844 131.5,15C 87.5684,11.3847 53.7351,27.8847 30,64.5C 9.02941,104.09 11.0294,142.424 36,179.5C 42.0421,186.038 47.8755,192.705 53.5,199.5C 51.1475,198.66 49.1475,197.326 47.5,195.5C 40.475,187.634 33.975,179.3 28,170.5C 18.7018,153.93 13.8684,136.096 13.5,117C 18.0724,62.2771 46.7391,27.7771 99.5,13.5C 112.497,10.8664 125.497,10.8664 138.5,13.5 Z"/></g>
<g><path style="opacity:0.819" fill="#eb9001" d="M 208.5,54.5 C 222.348,73.0501 229.014,94.0501 228.5,117.5C 227.429,166.518 204.096,199.684 158.5,217C 119.753,228.749 83.4197,223.749 49.5,202C 39.1135,194.053 30.4468,184.553 23.5,173.5C 24.4959,173.414 25.3292,173.748 26,174.5C 31.71,183.044 38.8767,190.044 47.5,195.5C 49.1475,197.326 51.1475,198.66 53.5,199.5C 60.4581,204.478 68.1248,208.144 76.5,210.5C 78.9925,211.774 81.6592,212.44 84.5,212.5C 101.259,216.812 118.259,217.645 135.5,215C 155.516,211.514 173.183,203.347 188.5,190.5C 194.053,186.737 198.719,182.07 202.5,176.5C 214.257,160.914 220.924,143.247 222.5,123.5C 225.524,98.9538 220.857,75.9538 208.5,54.5 Z"/></g>
<g><path style="opacity:1" fill="#47300e" d="M 64.5,147.5 C 58.4626,148.123 55.1292,145.457 54.5,139.5C 56.0493,134.63 59.3827,132.63 64.5,133.5C 68.5138,133.666 72.5138,133.499 76.5,133C 83.0394,130.811 89.206,127.978 95,124.5C 101.04,125.315 103.04,128.648 101,134.5C 90.3997,143.09 78.2331,147.423 64.5,147.5 Z"/></g>
<g><path style="opacity:1" fill="#48300e" d="M 158.5,131.5 C 160.515,132.924 162.848,133.59 165.5,133.5C 168.5,133.5 171.5,133.5 174.5,133.5C 178.532,133.186 181.865,134.519 184.5,137.5C 184.726,144.937 181.059,148.27 173.5,147.5C 159.917,147.785 148.083,143.452 138,134.5C 136.072,128.912 137.905,125.578 143.5,124.5C 148.319,127.074 153.319,129.408 158.5,131.5 Z"/></g>
<g><path style="opacity:1" fill="#c5a925" d="M 158.5,131.5 C 161.152,131.41 163.485,132.076 165.5,133.5C 162.848,133.59 160.515,132.924 158.5,131.5 Z"/></g>
<g><path style="opacity:1" fill="#452e0e" d="M 146.5,172.5 C 150.572,176.565 154.238,180.898 157.5,185.5C 158.592,190.123 156.925,191.956 152.5,191C 151.307,189.905 149.973,189.072 148.5,188.5C 133.14,178.931 116.807,177.098 99.5,183C 95.4401,184.689 91.7734,186.856 88.5,189.5C 86.2362,190.219 83.9029,190.552 81.5,190.5C 81.5,188.833 81.5,187.167 81.5,185.5C 84.7617,180.898 88.4283,176.565 92.5,172.5C 110.434,160.532 128.434,160.532 146.5,172.5 Z"/></g>
<g><path style="opacity:1" fill="#f8d02d" d="M 148.5,188.5 C 144.312,191.181 139.646,193.015 134.5,194C 118.624,196.762 103.29,195.262 88.5,189.5C 91.7734,186.856 95.4401,184.689 99.5,183C 116.807,177.098 133.14,178.931 148.5,188.5 Z"/></g>
</svg>
