<?xml version="1.0" encoding="UTF-8"?>
<!DOCTYPE svg PUBLIC "-//W3C//DTD SVG 1.1//EN" "http://www.w3.org/Graphics/SVG/1.1/DTD/svg11.dtd">
<svg xmlns="http://www.w3.org/2000/svg" version="1.1" width="64px" height="64px" style="shape-rendering:geometricPrecision; text-rendering:geometricPrecision; image-rendering:optimizeQuality; fill-rule:evenodd; clip-rule:evenodd" xmlns:xlink="http://www.w3.org/1999/xlink">
<g><path style="opacity:1" fill="#f09c14" d="M 25.5,2.5 C 54.3569,2.54572 65.1902,16.5457 58,44.5C 48.1661,58.5506 34.9994,62.7173 18.5,57C 7.40356,51.7216 1.73689,42.8883 1.5,30.5C 2.72903,15.2765 10.729,5.9432 25.5,2.5 Z"/></g>
<g><path style="opacity:1" fill="#f6c12b" d="M 13.5,49.5 C 11.9826,49.4894 10.8159,48.8228 10,47.5C 4.30696,38.5206 2.97363,28.854 6,18.5C 9.50788,15.3246 12.6745,11.8246 15.5,8C 24.1927,4.19769 33.1927,3.53103 42.5,6C 47.4256,9.96433 52.259,14.131 57,18.5C 62.5669,41.7216 53.5669,54.7216 30,57.5C 25.9896,57.4969 22.1563,56.6636 18.5,55C 16.2338,53.5741 14.5671,51.7407 13.5,49.5 Z"/></g>
<g><path style="opacity:1" fill="#4f3710" d="M 41.5,42.5 C 42.9997,44.5091 42.4997,45.8424 40,46.5C 34.5496,45.5701 29.0496,45.2367 23.5,45.5C 23.5674,44.0413 23.2341,42.7079 22.5,41.5C 28.9956,38.666 35.329,38.9993 41.5,42.5 Z"/></g>
<g><path style="opacity:1" fill="#42b3ee" d="M 22.5,41.5 C 23.2341,42.7079 23.5674,44.0413 23.5,45.5C 23.385,47.9468 22.385,49.9468 20.5,51.5C 17.812,51.8342 15.4786,51.1675 13.5,49.5C 12.6993,47.9582 12.366,46.2915 12.5,44.5C 12.6287,42.7839 12.962,41.1172 13.5,39.5C 14.705,36.7659 16.205,34.0993 18,31.5C 19.7862,34.7365 21.2862,38.0698 22.5,41.5 Z"/></g>
<g><path style="opacity:1" fill="#f7cd2d" d="M 20.5,51.5 C 22.385,49.9468 23.385,47.9468 23.5,45.5C 29.0496,45.2367 34.5496,45.5701 40,46.5C 42.4997,45.8424 42.9997,44.5091 41.5,42.5C 42.4959,42.5858 43.3292,42.2524 44,41.5C 48.6701,33.7096 48.5034,26.0429 43.5,18.5C 45.4628,19.9599 47.2962,21.6266 49,23.5C 48.5892,19.4062 46.2558,16.7395 42,15.5C 40.9701,15.8361 40.4701,16.5028 40.5,17.5C 34.1667,13.5 27.8333,13.5 21.5,17.5C 21.6309,16.6236 21.2975,15.9569 20.5,15.5C 17.0026,16.9107 14.3359,19.244 12.5,22.5C 12.9569,23.2975 13.6236,23.6309 14.5,23.5C 12.3462,28.6577 12.0129,33.991 13.5,39.5C 12.962,41.1172 12.6287,42.7839 12.5,44.5C 5.13722,32.4501 6.80389,21.6168 17.5,12C 29.4743,5.03481 40.3076,6.53481 50,16.5C 57.6626,29.964 55.496,41.464 43.5,51C 35.8837,55.4141 28.217,55.5808 20.5,51.5 Z"/></g>
<g><path style="opacity:1" fill="#523910" d="M 43.5,18.5 C 42.609,17.8902 41.609,17.5569 40.5,17.5C 40.4701,16.5028 40.9701,15.8361 42,15.5C 46.2558,16.7395 48.5892,19.4062 49,23.5C 47.2962,21.6266 45.4628,19.9599 43.5,18.5 Z"/></g>
<g><path style="opacity:1" fill="#5f4613" d="M 21.5,17.5 C 18.5526,18.7805 16.2193,20.7805 14.5,23.5C 13.6236,23.6309 12.9569,23.2975 12.5,22.5C 14.3359,19.244 17.0026,16.9107 20.5,15.5C 21.2975,15.9569 21.6309,16.6236 21.5,17.5 Z"/></g>
<g><path style="opacity:1" fill="#f7da30" d="M 40.5,17.5 C 41.609,17.5569 42.609,17.8902 43.5,18.5C 48.5034,26.0429 48.6701,33.7096 44,41.5C 43.3292,42.2524 42.4959,42.5858 41.5,42.5C 35.329,38.9993 28.9956,38.666 22.5,41.5C 21.2862,38.0698 19.7862,34.7365 18,31.5C 16.205,34.0993 14.705,36.7659 13.5,39.5C 12.0129,33.991 12.3462,28.6577 14.5,23.5C 16.2193,20.7805 18.5526,18.7805 21.5,17.5C 27.8333,13.5 34.1667,13.5 40.5,17.5 Z"/></g>
<g><path style="opacity:1" fill="#4a320f" d="M 38.5,23.5 C 44.0666,22.7532 45.9,25.0866 44,30.5C 42,33.1667 40,33.1667 38,30.5C 37.2967,28.0709 37.4634,25.7375 38.5,23.5 Z"/></g>
<g><path style="opacity:1" fill="#503811" d="M 19.5,23.5 C 25.0666,22.7532 26.9,25.0866 25,30.5C 22.3676,33.1924 20.0342,32.859 18,29.5C 17.2516,27.1599 17.7516,25.1599 19.5,23.5 Z"/></g>
</svg>
